<svg width="57" height="56" viewBox="0 0 57 56" fill="none" xmlns="http://www.w3.org/2000/svg">
<path d="M12.4219 44.0781C10.4094 42.0656 11.7438 37.8437 10.7156 35.3719C9.6875 32.9 5.75 30.7344 5.75 28C5.75 25.2656 9.64375 23.1875 10.7156 20.6281C11.7875 18.0688 10.4094 13.9344 12.4219 11.9219C14.4344 9.90938 18.6563 11.2438 21.1281 10.2156C23.6 9.1875 25.7656 5.25 28.5 5.25C31.2344 5.25 33.3125 9.14375 35.8719 10.2156C38.4312 11.2875 42.5656 9.90938 44.5781 11.9219C46.5906 13.9344 45.2563 18.1563 46.2844 20.6281C47.3125 23.1 51.25 25.2656 51.25 28C51.25 30.7344 47.3563 32.8125 46.2844 35.3719C45.2125 37.9312 46.5906 42.0656 44.5781 44.0781C42.5656 46.0906 38.3437 44.7563 35.8719 45.7844C33.4 46.8125 31.2344 50.75 28.5 50.75C25.7656 50.75 23.6875 46.8563 21.1281 45.7844C18.5688 44.7125 14.4344 46.0906 12.4219 44.0781Z" stroke="#222222" stroke-width="2" stroke-linecap="round" stroke-linejoin="round"/>
<path d="M38.125 22.75L25.2844 35L18.875 28.875" stroke="#222222" stroke-width="2" stroke-linecap="round" stroke-linejoin="round"/>
</svg>
