<svg width="57" height="56" viewBox="0 0 57 56" fill="none" xmlns="http://www.w3.org/2000/svg">
<path d="M28.5 38.5C34.299 38.5 39 33.799 39 28C39 22.201 34.299 17.5 28.5 17.5C22.701 17.5 18 22.201 18 28C18 33.799 22.701 38.5 28.5 38.5Z" stroke="#222222" stroke-width="2" stroke-linecap="round" stroke-linejoin="round"/>
<path d="M43.6807 17.6525C44.2073 18.4065 44.6684 19.2042 45.0588 20.0369L50.7245 23.1869C51.4319 26.3554 51.4394 29.6402 50.7463 32.8119L45.0588 35.9619C44.6684 36.7946 44.2073 37.5923 43.6807 38.3463L43.7901 44.8432C41.389 47.0312 38.5471 48.6796 35.4557 49.6775L29.8776 46.3307C28.96 46.3963 28.0389 46.3963 27.1213 46.3307L21.5651 49.6557C18.4639 48.6759 15.6127 47.0338 13.2088 44.8432L13.3182 38.3682C12.796 37.6037 12.3352 36.7991 11.9401 35.9619L6.27445 32.8119C5.56701 29.6434 5.55955 26.3586 6.25258 23.1869L11.9401 20.0369C12.3305 19.2042 12.7916 18.4065 13.3182 17.6525L13.2088 11.1557C15.6099 8.96765 18.4518 7.31923 21.5432 6.32129L27.1213 9.66816C28.0389 9.60253 28.96 9.60253 29.8776 9.66816L35.4338 6.34316C38.535 7.32294 41.3862 8.965 43.7901 11.1557L43.6807 17.6525Z" stroke="#222222" stroke-width="2" stroke-linecap="round" stroke-linejoin="round"/>
</svg>
