<svg width="57" height="56" viewBox="0 0 57 56" fill="none" xmlns="http://www.w3.org/2000/svg">
<path d="M53.1531 26.6442L47.75 29.3348L40.75 15.9473L46.2188 13.2129C46.6252 13.0057 47.097 12.9677 47.5314 13.107C47.9657 13.2463 48.3274 13.5517 48.5375 13.9567L53.9187 24.2598C54.0279 24.466 54.0946 24.692 54.1151 24.9244C54.1357 25.1569 54.1095 25.3911 54.0381 25.6132C53.9668 25.8354 53.8517 26.041 53.6998 26.2181C53.5478 26.3951 53.3619 26.54 53.1531 26.6442V26.6442Z" stroke="#222222" stroke-width="2" stroke-linecap="round" stroke-linejoin="round"/>
<path d="M9.24963 29.1154L3.8465 26.4029C3.63846 26.3009 3.45305 26.1581 3.30128 25.9831C3.14952 25.808 3.0345 25.6042 2.96308 25.3838C2.89165 25.1635 2.86527 24.9309 2.88551 24.7001C2.90575 24.4693 2.97219 24.245 3.08088 24.0404L8.46213 13.7372C8.67264 13.3326 9.03279 13.0262 9.4659 12.8832C9.899 12.7402 10.3708 12.7719 10.7809 12.9716L16.2496 15.706L9.24963 29.1154Z" stroke="#222222" stroke-width="2" stroke-linecap="round" stroke-linejoin="round"/>
<path d="M47.75 29.335L44.25 33.4475L36.2 41.4975C35.9806 41.7026 35.7148 41.8516 35.4252 41.9316C35.1357 42.0116 34.8311 42.0202 34.5375 41.9568L21.85 38.785C21.6182 38.7204 21.4023 38.6087 21.2156 38.4568L9.25 29.1162" stroke="#222222" stroke-width="2" stroke-linecap="round" stroke-linejoin="round"/>
<path d="M44.2507 33.4463L34.6257 26.4463L31.8257 28.5463C30.6126 29.4517 29.1394 29.9409 27.6257 29.9409C26.112 29.9409 24.6388 29.4517 23.4257 28.5463L22.2444 27.6494C22.0447 27.4976 21.8795 27.305 21.7597 27.0845C21.64 26.864 21.5684 26.6206 21.5498 26.3703C21.5312 26.1201 21.5659 25.8688 21.6517 25.633C21.7376 25.3972 21.8725 25.1823 22.0476 25.0025L30.6226 16.4494C30.7836 16.2891 30.9747 16.1622 31.1849 16.0759C31.3952 15.9895 31.6203 15.9455 31.8476 15.9463H40.7507" stroke="#222222" stroke-width="2" stroke-linecap="round" stroke-linejoin="round"/>
<path d="M16.3809 15.7059L27.6027 12.4246C28.0015 12.3103 28.4279 12.3413 28.8059 12.5121L36.3746 15.9465" stroke="#222222" stroke-width="2" stroke-linecap="round" stroke-linejoin="round"/>
<path d="M25 46.5719L18.4156 44.9094C18.1473 44.8488 17.8989 44.7208 17.6937 44.5375L12.75 40.25" stroke="#222222" stroke-width="2" stroke-linecap="round" stroke-linejoin="round"/>
</svg>
